<?xml version="1.0" encoding="utf-8"?>
<!-- Generator: Adobe Illustrator 24.1.2, SVG Export Plug-In . SVG Version: 6.00 Build 0)  -->
<svg version="1.1" id="Layer_1" xmlns="http://www.w3.org/2000/svg" xmlns:xlink="http://www.w3.org/1999/xlink" x="0px" y="0px"
	 viewBox="0 0 322.8 353" style="enable-background:new 0 0 322.8 353;" xml:space="preserve">
<style type="text/css">
	.st0{fill:#2C2255;}
</style>
<g>
	<g>
		<g id="triangle36_70_">
			<g>
				<path class="st0" d="M327.4,543.6l0.2-0.8l15.5,132.8l0,0.3l-49.9-26.1l-0.1-0.1L327.4,543.6z M327.5,544.5l-33.9,105.1
					l49.2,25.8L327.5,544.5z"/>
			</g>
		</g>
		<g id="triangle36_69_">
			<g>
				<path class="st0" d="M335.5,438.7l-7.8,105l0,0.5l-27.3-46.7L335.5,438.7z M335,440.1l-34.3,57.5l26.7,45.5L335,440.1z"/>
			</g>
		</g>
		<g id="triangle36_68_">
			<g>
				<path class="st0" d="M335.3,439.3l0.2,0.1l-34.8,58.4l-0.1,0.2l-61.4-81.3l-0.3-0.4L335.3,439.3z M335,439.5l-95.3-22.7
					l60.8,80.5L335,439.5z"/>
			</g>
		</g>
		<g id="triangle36_67_">
			<g>
				<path class="st0" d="M239.1,416.5l0-0.5l61.5,81.5l0.1,0.2l-67.7,25.8l-0.2,0.1L239.1,416.5z M239.4,417l-6.2,106.1l67-25.6
					L239.4,417z"/>
			</g>
		</g>
		<g id="triangle36_66_">
			<g>
				<path class="st0" d="M239.1,416.5l0.4-1.3l-6.3,108.1l0,0.2l-26.1-9l-0.2-0.1L239.1,416.5z M239.1,417.8l-31.6,96.5l25.5,8.8
					L239.1,417.8z"/>
			</g>
		</g>
		<g id="triangle36_65_">
			<g>
				<path class="st0" d="M232.9,523.2l0.1-0.1l54,51.1l0.3,0.3l-105.3,3l-0.4,0L232.9,523.2z M233.1,523.6l-50.6,53.5l104.1-2.9
					L233.1,523.6z"/>
			</g>
		</g>
		<g id="triangle36_64_">
			<g>
				<path class="st0" d="M207,514.4l0.1-0.2l26,9l0.3,0.1L181.6,578L207,514.4z M207.3,514.6l-24.7,61.9l50.2-53.1L207.3,514.6z"/>
			</g>
		</g>
		<g id="triangle36_63_">
			<g>
				<path class="st0" d="M74.5,299.6l0.1-0.1l49.5,43.4l0.3,0.3l-102.3,8.1l-0.5,0L74.5,299.6z M74.6,299.9l-52,50.9l101-8
					L74.6,299.9z"/>
			</g>
		</g>
		<g id="triangle36_62_">
			<g>
				<path class="st0" d="M296,548.3l0.2,0.1l-9,26l-0.1,0.3L233,523.5l-0.7-0.6L296,548.3z M295.7,548.6l-61.9-24.7l53.1,50.2
					L295.7,548.6z"/>
			</g>
		</g>
		<g id="triangle36_61_">
			<g>
				<path class="st0" d="M300.4,497l27.4,46.8l-31.9,4.8l-0.2,0L300.4,497z M300.7,498.1l-4.5,50.1l31.1-4.7L300.7,498.1z"/>
			</g>
		</g>
		<g id="triangle36_60_">
			<g>
				<path class="st0" d="M300.5,497.4l0.3-0.1l-4.6,51.1l0,0.2l-63.5-25.4L300.5,497.4z M300.3,497.9l-66.8,25.5l62.2,24.9
					L300.3,497.9z"/>
			</g>
		</g>
		<g id="triangle36_59_">
			<g>
				<path class="st0" d="M170.7,428.9l68.6-12.5l0.3-0.1l-32.3,98.6L170.7,428.9z M171.2,429.2l36,84.8l31.9-97.2L171.2,429.2z"/>
			</g>
		</g>
		<g id="triangle36_58_">
			<g>
				<path class="st0" d="M211.7,380.8l27.7,35.6l0.2,0.2L171,429.2l-0.5,0.1L211.7,380.8z M211.7,381.4l-40.3,47.4l67.6-12.4
					L211.7,381.4z"/>
			</g>
		</g>
		<g id="triangle36_57_">
			<g>
				<path class="st0" d="M123.9,343.1l-0.2-0.4l88.1,38.3l0.2,0.1l-40.9,48.1l-0.2,0.2L123.9,343.1z M124.4,343.4l46.6,85.4
					l40.4-47.6L124.4,343.4z"/>
			</g>
		</g>
		<g id="triangle36_56_">
			<g>
				<path class="st0" d="M140.1,123.6l0.3,0l-9,26.1l0,0.1l-88.6-10.1l-1.2-0.1L140.1,123.6z M139.9,124L44,139.5l87.1,9.9
					L139.9,124z"/>
			</g>
		</g>
		<g id="triangle36_55_">
			<g>
				<path class="st0" d="M286.8,574.3L286.8,574.3l10.2-13.2l-3.5,88.6l-0.3,0L286.8,574.3z M287.2,574.4l6.1,72.6l3.4-84.7
					L287.2,574.4z"/>
			</g>
		</g>
		<g id="triangle36_54_">
			<g>
				<path class="st0" d="M296.6,561.7L296.6,561.7l31.2-18.4l-34.4,106.5l-0.4,1.2L296.6,561.7z M297,561.8l-3.4,86.7l33.7-104.4
					L297,561.8z"/>
			</g>
		</g>
		<g id="triangle36_53_">
			<g>
				<path class="st0" d="M296,547.6l0.9,14.2l-10.5,13.5L296,547.6z M295.8,549.3l-8.3,24.1l9.1-11.8L295.8,549.3z"/>
			</g>
		</g>
		<g id="triangle36_52_">
			<g>
				<path class="st0" d="M295.8,548.5l0-0.2l32.6-4.9L296.7,562L295.8,548.5z M296.1,548.6l0.8,12.8l29.7-17.4L296.1,548.6z"/>
			</g>
		</g>
		<g id="triangle36_51_">
			<g>
				<path class="st0" d="M13.1,36.4L13,36l127.2,87.7l0.4,0.2l-97.8,15.8l-0.2,0L13.1,36.4z M13.6,36.8l29.3,102.5l96.8-15.7
					L13.6,36.8z"/>
			</g>
		</g>
		<g id="triangle36_50_">
			<g>
				<path class="st0" d="M-3.4,107.8L-3.4,107.8l46.2,31.5l0.4,0.3l-101.4,4l-0.6,0L-3.4,107.8z M-3.3,108.2l-54.2,35.2l99.7-4
					L-3.3,108.2z"/>
			</g>
		</g>
		<g id="triangle36_49_">
			<g>
				<path class="st0" d="M13.1,36.4l0.1-0.6L43,139.9l-46.4-31.8l-0.1-0.1L13.1,36.4z M13.3,37.1l-16.4,70.8l45.5,31.2L13.3,37.1z"
					/>
			</g>
		</g>
		<g id="triangle36_48_">
			<g>
				<path class="st0" d="M241.5,366.9l-2.1,50.1l-27.9-35.8l-0.1-0.2L241.5,366.9z M241.2,367.4l-29.2,13.7l27.2,34.9L241.2,367.4z"
					/>
			</g>
		</g>
		<g id="triangle36_47_">
			<g>
				<path class="st0" d="M229.6,312l0.2-0.7l11.8,55.8l0,0.1l-29.8,14l-0.3,0.2L229.6,312z M229.7,312.8l-17.8,68l29.2-13.7
					L229.7,312.8z"/>
			</g>
		</g>
		<g id="triangle36_46_">
			<g>
				<path class="st0" d="M229.8,311.9l0.2,0l-18.1,69.2l-0.1,0.4l-51.4-87.8L229.8,311.9z M229.5,312.2L161,294.3l50.6,86.4
					L229.5,312.2z"/>
			</g>
		</g>
		<g id="triangle36_45_">
			<g>
				<path class="st0" d="M160.6,293.9l0.2-0.2l51.4,87.8L124,343.2l-0.2-0.1L160.6,293.9z M160.7,294.3l-36.4,48.6l87,37.8
					L160.7,294.3z"/>
			</g>
		</g>
		<g id="triangle36_44_">
			<g>
				<path class="st0" d="M160.7,293.8l0.4,0l-36.9,49.3l-0.1,0.1l-49.6-43.4l-0.3-0.3L160.7,293.8z M160.3,294.2L75,299.9l49,42.9
					L160.3,294.2z"/>
			</g>
		</g>
		<g id="triangle36_43_">
			<g>
				<path class="st0" d="M96.8,255.6l0.1-0.2l63.9,38.4l0.5,0.3l-86.6,5.7l-0.3,0L96.8,255.6z M97,255.9l-22.1,43.6l85.2-5.6
					L97,255.9z"/>
			</g>
		</g>
		<g id="triangle36_42_">
			<g>
				<path class="st0" d="M96.9,255.5l0.5-0.2l-22.6,44.5l0,0.1l-79.6,5.3l-0.9,0.1L96.9,255.5z M96.6,256L-4,304.7l78.5-5.2
					L96.6,256z"/>
			</g>
		</g>
		<g id="triangle36_41_">
			<g>
				<path class="st0" d="M42.5,139.5l0.1-0.4l54.4,116.5l0.1,0.2l-102,49.4l-0.3,0.2L42.5,139.5z M42.7,140L-4.6,304.7l101.3-49.1
					L42.7,140z"/>
			</g>
		</g>
		<g id="triangle36_40_">
			<g>
				<path class="st0" d="M42.6,139.6l-0.1-0.3l88.8,10.1l0.2,0L97.1,255.7l-0.1,0.4L42.6,139.6z M43,139.7l53.9,115.5l34-105.4
					L43,139.7z"/>
			</g>
		</g>
		<g id="triangle36_39_">
			<g>
				<path class="st0" d="M327.4,543.7l-0.2-1.6l45,130.2l0.1,0.2l-29.3,3.3l-0.2,0L327.4,543.7z M327.9,545.2l15.2,130.3l28.7-3.2
					L327.9,545.2z"/>
			</g>
		</g>
		<g id="triangle36_38_">
			<g>
				<path class="st0" d="M-2.2,327.3l0.1-0.2L22.2,351l0.2,0.2l-46.2,16.6L-2.2,327.3z M-2,327.7l-21,39.4L21.8,351L-2,327.7z"/>
			</g>
		</g>
		<g id="triangle36_37_">
			<g>
				<path class="st0" d="M74.5,299.6l0.7-0.3l-53,51.9l-0.1,0.1l-24.3-23.8l-0.2-0.2L74.5,299.6z M73.9,300.1l-75.7,27.3l23.9,23.4
					L73.9,300.1z"/>
			</g>
		</g>
		<g id="triangle36_36_">
			<g>
				<path class="st0" d="M-5.1,304.8l79.6-5.3l1.2-0.1L-2,327.6l-0.2,0.1L-5.1,304.8z M-4.7,305.1l2.8,22L73.4,300L-4.7,305.1z"/>
			</g>
		</g>
	</g>
	<g>
		<g>
			<path class="st0" d="M295,652.6c1.6-0.9,2.1-2.9,1.2-4.5c-0.9-1.6-2.9-2.1-4.5-1.2c-1.6,0.9-2.1,2.9-1.2,4.5
				S293.4,653.5,295,652.6z"/>
			<path class="st0" d="M291.4,646.4c1.8-1.1,4.2-0.5,5.3,1.4c1.1,1.8,0.5,4.2-1.4,5.3c-1.8,1.1-4.2,0.5-5.3-1.4
				C288.9,649.8,289.5,647.5,291.4,646.4z M291.9,647.4c-1.3,0.8-1.7,2.4-1,3.7c0.8,1.3,2.4,1.7,3.7,1c1.3-0.8,1.7-2.4,1-3.7
				C294.9,647.1,293.2,646.6,291.9,647.4z"/>
		</g>
		<g>
			<path class="st0" d="M288.7,577.2c1.6-0.9,2.1-2.9,1.2-4.5c-0.9-1.6-2.9-2.1-4.5-1.2c-1.6,0.9-2.1,2.9-1.2,4.5
				C285.1,577.6,287.1,578.1,288.7,577.2z"/>
			<path class="st0" d="M285,571c1.8-1.1,4.2-0.5,5.3,1.4c1.1,1.8,0.5,4.2-1.4,5.3c-1.8,1.1-4.2,0.5-5.3-1.4
				C282.6,574.4,283.2,572.1,285,571z M285.6,572c-1.3,0.8-1.7,2.4-1,3.7s2.4,1.7,3.7,1c1.3-0.8,1.7-2.4,1-3.7
				C288.6,571.6,286.9,571.2,285.6,572z"/>
		</g>
		<g>
			<path class="st0" d="M298.5,564.5c1.6-0.9,2.1-2.9,1.2-4.5c-0.9-1.6-2.9-2.1-4.5-1.2c-1.6,0.9-2.1,2.9-1.2,4.5
				C294.9,564.9,296.9,565.5,298.5,564.5z"/>
			<path class="st0" d="M294.8,558.4c1.8-1.1,4.2-0.5,5.3,1.4c1.1,1.8,0.5,4.2-1.4,5.3c-1.8,1.1-4.2,0.5-5.3-1.4
				C292.4,561.8,293,559.4,294.8,558.4z M295.4,559.3c-1.3,0.8-1.7,2.4-1,3.7c0.8,1.3,2.4,1.7,3.7,1c1.3-0.8,1.7-2.4,1-3.7
				C298.4,559,296.7,558.6,295.4,559.3z"/>
		</g>
		<g>
			<path class="st0" d="M297.6,551.3c1.6-0.9,2.1-2.9,1.2-4.5c-0.9-1.6-2.9-2.1-4.5-1.2c-1.6,0.9-2.1,2.9-1.2,4.5
				C294,551.7,296,552.2,297.6,551.3z"/>
			<path class="st0" d="M294,545.1c1.8-1.1,4.2-0.5,5.3,1.4c1.1,1.8,0.5,4.2-1.4,5.3c-1.8,1.1-4.2,0.5-5.3-1.4
				C291.5,548.6,292.1,546.2,294,545.1z M294.5,546.1c-1.3,0.8-1.7,2.4-1,3.7c0.8,1.3,2.4,1.7,3.7,1c1.3-0.8,1.7-2.4,1-3.7
				C297.5,545.8,295.8,545.3,294.5,546.1z"/>
		</g>
		<g>
			<path class="st0" d="M329.2,546.5c1.6-0.9,2.1-2.9,1.2-4.5c-0.9-1.6-2.9-2.1-4.5-1.2c-1.6,0.9-2.1,2.9-1.2,4.5
				C325.6,546.9,327.6,547.5,329.2,546.5z"/>
			<path class="st0" d="M325.6,540.4c1.8-1.1,4.2-0.5,5.3,1.4c1.1,1.8,0.5,4.2-1.4,5.3c-1.8,1.1-4.2,0.5-5.3-1.4
				C323.1,543.8,323.7,541.4,325.6,540.4z M326.2,541.3c-1.3,0.8-1.7,2.4-1,3.7c0.8,1.3,2.4,1.7,3.7,1c1.3-0.8,1.7-2.4,1-3.7
				C329.1,541,327.5,540.6,326.2,541.3z"/>
		</g>
		<g>
			<path class="st0" d="M336.9,442.3c1.6-0.9,2.1-2.9,1.2-4.5c-0.9-1.6-2.9-2.1-4.5-1.2c-1.6,0.9-2.1,2.9-1.2,4.5
				C333.3,442.7,335.4,443.2,336.9,442.3z"/>
			<path class="st0" d="M333.3,436.1c1.8-1.1,4.2-0.5,5.3,1.4c1.1,1.8,0.5,4.2-1.4,5.3c-1.8,1.1-4.2,0.5-5.3-1.4
				C330.9,439.5,331.5,437.2,333.3,436.1z M333.9,437.1c-1.3,0.8-1.7,2.4-1,3.7c0.8,1.3,2.4,1.7,3.7,1s1.7-2.4,1-3.7
				S335.2,436.3,333.9,437.1z"/>
		</g>
		<g>
			<path class="st0" d="M302.2,500.4c1.6-0.9,2.1-2.9,1.2-4.5c-0.9-1.6-2.9-2.1-4.5-1.2c-1.6,0.9-2.1,2.9-1.2,4.5
				C298.6,500.8,300.6,501.4,302.2,500.4z"/>
			<path class="st0" d="M298.6,494.3c1.8-1.1,4.2-0.5,5.3,1.4c1.1,1.8,0.5,4.2-1.4,5.3c-1.8,1.1-4.2,0.5-5.3-1.4
				C296.1,497.7,296.7,495.3,298.6,494.3z M299.2,495.2c-1.3,0.8-1.7,2.4-1,3.7s2.4,1.7,3.7,1c1.3-0.8,1.7-2.4,1-3.7
				C302.1,494.9,300.5,494.5,299.2,495.2z"/>
		</g>
		<g>
			<path class="st0" d="M243,370c1.6-0.9,2.1-2.9,1.2-4.5c-0.9-1.6-2.9-2.1-4.5-1.2c-1.6,0.9-2.1,2.9-1.2,4.5
				C239.4,370.4,241.5,370.9,243,370z"/>
			<path class="st0" d="M239.4,363.8c1.8-1.1,4.2-0.5,5.3,1.4c1.1,1.8,0.5,4.2-1.4,5.3c-1.8,1.1-4.2,0.5-5.3-1.4
				C236.9,367.3,237.6,364.9,239.4,363.8z M240,364.8c-1.3,0.8-1.7,2.4-1,3.7c0.8,1.3,2.4,1.7,3.7,1c1.3-0.8,1.7-2.4,1-3.7
				C242.9,364.5,241.3,364,240,364.8z"/>
		</g>
		<g>
			<path class="st0" d="M241,419.4c1.6-0.9,2.1-2.9,1.2-4.5c-0.9-1.6-2.9-2.1-4.5-1.2c-1.6,0.9-2.1,2.9-1.2,4.5
				C237.4,419.8,239.4,420.3,241,419.4z"/>
			<path class="st0" d="M237.3,413.2c1.8-1.1,4.2-0.5,5.3,1.4c1.1,1.8,0.5,4.2-1.4,5.3c-1.8,1.1-4.2,0.5-5.3-1.4
				C234.9,416.6,235.5,414.3,237.3,413.2z M237.9,414.2c-1.3,0.8-1.7,2.4-1,3.7s2.4,1.7,3.7,1c1.3-0.8,1.7-2.4,1-3.7
				C240.9,413.8,239.2,413.4,237.9,414.2z"/>
		</g>
		<g>
			<path class="st0" d="M234.7,526.2c1.6-0.9,2.1-2.9,1.2-4.5c-0.9-1.6-2.9-2.1-4.5-1.2c-1.6,0.9-2.1,2.9-1.2,4.5
				C231.1,526.6,233.2,527.1,234.7,526.2z"/>
			<path class="st0" d="M231.1,520c1.8-1.1,4.2-0.5,5.3,1.4c1.1,1.8,0.5,4.2-1.4,5.3c-1.8,1.1-4.2,0.5-5.3-1.4
				C228.7,523.5,229.3,521.1,231.1,520z M231.7,521c-1.3,0.8-1.7,2.4-1,3.7c0.8,1.3,2.4,1.7,3.7,1c1.3-0.8,1.7-2.4,1-3.7
				C234.7,520.7,233,520.2,231.7,521z"/>
		</g>
		<g>
			<path class="st0" d="M183.8,580.1c1.6-0.9,2.1-2.9,1.2-4.5c-0.9-1.6-2.9-2.1-4.5-1.2c-1.6,0.9-2.1,2.9-1.2,4.5
				C180.2,580.5,182.2,581,183.8,580.1z"/>
			<path class="st0" d="M180.1,573.9c1.8-1.1,4.2-0.5,5.3,1.4c1.1,1.8,0.5,4.2-1.4,5.3c-1.8,1.1-4.2,0.5-5.3-1.4
				C177.7,577.4,178.3,575,180.1,573.9z M180.7,574.9c-1.3,0.8-1.7,2.4-1,3.7c0.8,1.3,2.4,1.7,3.7,1c1.3-0.8,1.7-2.4,1-3.7
				C183.7,574.6,182,574.2,180.7,574.9z"/>
		</g>
		<g>
			<path class="st0" d="M208.9,517.3c1.6-0.9,2.1-2.9,1.2-4.5c-0.9-1.6-2.9-2.1-4.5-1.2c-1.6,0.9-2.1,2.9-1.2,4.5
				C205.3,517.7,207.3,518.2,208.9,517.3z"/>
			<path class="st0" d="M205.3,511.1c1.8-1.1,4.2-0.5,5.3,1.4c1.1,1.8,0.5,4.2-1.4,5.3c-1.8,1.1-4.2,0.5-5.3-1.4
				C202.8,514.5,203.4,512.2,205.3,511.1z M205.8,512.1c-1.3,0.8-1.7,2.4-1,3.7c0.8,1.3,2.4,1.7,3.7,1c1.3-0.8,1.7-2.4,1-3.7
				C208.8,511.7,207.1,511.3,205.8,512.1z"/>
		</g>
		<g>
			<ellipse transform="matrix(0.8797 -0.4755 0.4755 0.8797 -183.431 132.8883)" class="st0" cx="171" cy="429" rx="3.3" ry="3.3"/>
			<path class="st0" d="M169,425.7c1.8-1.1,4.2-0.5,5.3,1.4c1.1,1.8,0.5,4.2-1.4,5.3c-1.8,1.1-4.2,0.5-5.3-1.4
				C166.5,429.1,167.2,426.8,169,425.7z M169.6,426.7c-1.3,0.8-1.7,2.4-1,3.7c0.8,1.3,2.4,1.7,3.7,1c1.3-0.8,1.7-2.4,1-3.7
				S170.9,425.9,169.6,426.7z"/>
		</g>
		<g>
			<path class="st0" d="M126.5,347.3c2.4-1.4,3.1-4.4,1.8-6.8c-1.4-2.4-4.4-3.1-6.8-1.8c-2.4,1.4-3.1,4.4-1.8,6.8
				C121.1,347.9,124.2,348.6,126.5,347.3z"/>
			<path class="st0" d="M121.2,338.2c2.6-1.5,6-0.7,7.5,2c1.5,2.6,0.7,6-2,7.5c-2.6,1.5-6,0.7-7.5-2
				C117.7,343.2,118.6,339.8,121.2,338.2z M121.8,339.2c-2.1,1.2-2.8,3.9-1.6,6c1.2,2.1,3.9,2.8,6,1.6c2.1-1.2,2.8-3.9,1.6-6
				C126.6,338.7,123.9,338,121.8,339.2z"/>
		</g>
		<g>
			<path class="st0" d="M77.1,304c2.4-1.4,3.1-4.4,1.8-6.8c-1.4-2.4-4.4-3.1-6.8-1.8c-2.4,1.4-3.1,4.4-1.8,6.8
				C71.7,304.6,74.7,305.4,77.1,304z"/>
			<path class="st0" d="M71.8,295c2.6-1.5,6-0.7,7.5,2c1.5,2.6,0.7,6-2,7.5c-2.6,1.5-6,0.7-7.5-2C68.3,299.9,69.2,296.5,71.8,295z
				 M72.4,295.9c-2.1,1.2-2.8,3.9-1.6,6c1.2,2.1,3.9,2.8,6,1.6c2.1-1.2,2.8-3.9,1.6-6C77.2,295.4,74.5,294.7,72.4,295.9z"/>
		</g>
		<g>
			<path class="st0" d="M23.8,353.9c1.6-0.9,2.1-2.9,1.2-4.5c-0.9-1.6-2.9-2.1-4.5-1.2c-1.6,0.9-2.1,2.9-1.2,4.5
				C20.2,354.3,22.2,354.8,23.8,353.9z"/>
			<path class="st0" d="M20.2,347.7c1.8-1.1,4.2-0.5,5.3,1.4c1.1,1.8,0.5,4.2-1.4,5.3c-1.8,1.1-4.2,0.5-5.3-1.4
				C17.7,351.2,18.3,348.8,20.2,347.7z M20.8,348.7c-1.3,0.8-1.7,2.4-1,3.7c0.8,1.3,2.4,1.7,3.7,1c1.3-0.8,1.7-2.4,1-3.7
				C23.7,348.4,22,348,20.8,348.7z"/>
		</g>
		<g>
			<path class="st0" d="M-21.7,370.2c1.6-0.9,2.1-2.9,1.2-4.5c-0.9-1.6-2.9-2.1-4.5-1.2c-1.6,0.9-2.1,2.9-1.2,4.5
				C-25.3,370.6-23.3,371.2-21.7,370.2z"/>
			<path class="st0" d="M-25.3,364.1c1.8-1.1,4.2-0.5,5.3,1.4c1.1,1.8,0.5,4.2-1.4,5.3c-1.8,1.1-4.2,0.5-5.3-1.4
				C-27.8,367.5-27.1,365.1-25.3,364.1z M-24.7,365c-1.3,0.8-1.7,2.4-1,3.7c0.8,1.3,2.4,1.7,3.7,1c1.3-0.8,1.7-2.4,1-3.7
				C-21.8,364.7-23.4,364.3-24.7,365z"/>
		</g>
		<g>
			<path class="st0" d="M-0.4,330.2c1.6-0.9,2.1-2.9,1.2-4.5c-0.9-1.6-2.9-2.1-4.5-1.2c-1.6,0.9-2.1,2.9-1.2,4.5
				C-4,330.6-2,331.2-0.4,330.2z"/>
			<path class="st0" d="M-4,324.1c1.8-1.1,4.2-0.5,5.3,1.4c1.1,1.8,0.5,4.2-1.4,5.3c-1.8,1.1-4.2,0.5-5.3-1.4
				C-6.5,327.5-5.9,325.1-4,324.1z M-3.4,325c-1.3,0.8-1.7,2.4-1,3.7s2.4,1.7,3.7,1s1.7-2.4,1-3.7S-2.1,324.3-3.4,325z"/>
		</g>
		<g>
			<path class="st0" d="M-3.2,307.8c1.6-0.9,2.1-2.9,1.2-4.5c-0.9-1.6-2.9-2.1-4.5-1.2c-1.6,0.9-2.1,2.9-1.2,4.5
				C-6.8,308.2-4.8,308.7-3.2,307.8z"/>
			<path class="st0" d="M-6.8,301.6c1.8-1.1,4.2-0.5,5.3,1.4c1.1,1.8,0.5,4.2-1.4,5.3c-1.8,1.1-4.2,0.5-5.3-1.4
				C-9.3,305.1-8.7,302.7-6.8,301.6z M-6.2,302.6c-1.3,0.8-1.7,2.4-1,3.7c0.8,1.3,2.4,1.7,3.7,1c1.3-0.8,1.7-2.4,1-3.7
				C-3.3,302.3-4.9,301.9-6.2,302.6z"/>
		</g>
		<g>
			<path class="st0" d="M-56.5,146.4c1.6-0.9,2.1-2.9,1.2-4.5c-0.9-1.6-2.9-2.1-4.5-1.2c-1.6,0.9-2.1,2.9-1.2,4.5
				C-60.1,146.8-58,147.3-56.5,146.4z"/>
			<path class="st0" d="M-60.1,140.2c1.8-1.1,4.2-0.5,5.3,1.4c1.1,1.8,0.5,4.2-1.4,5.3c-1.8,1.1-4.2,0.5-5.3-1.4
				C-62.5,143.7-61.9,141.3-60.1,140.2z M-59.5,141.2c-1.3,0.8-1.7,2.4-1,3.7c0.8,1.3,2.4,1.7,3.7,1c1.3-0.8,1.7-2.4,1-3.7
				C-56.5,140.9-58.2,140.4-59.5,141.2z"/>
		</g>
		<g>
			
				<ellipse transform="matrix(0.7595 -0.6506 0.6506 0.7595 -197.0045 229.378)" class="st0" cx="211.7" cy="381.1" rx="3.3" ry="3.3"/>
			<path class="st0" d="M209.7,377.8c1.8-1.1,4.2-0.5,5.3,1.4c1.1,1.8,0.5,4.2-1.4,5.3c-1.8,1.1-4.2,0.5-5.3-1.4
				C207.3,381.2,207.9,378.8,209.7,377.8z M210.3,378.7c-1.3,0.8-1.7,2.4-1,3.7c0.8,1.3,2.4,1.7,3.7,1c1.3-0.8,1.7-2.4,1-3.7
				S211.6,378,210.3,378.7z"/>
		</g>
		<g>
			<circle class="st0" cx="229.7" cy="312.1" r="3.3"/>
			<path class="st0" d="M227.8,308.7c1.8-1.1,4.2-0.5,5.3,1.4c1.1,1.8,0.5,4.2-1.4,5.3c-1.8,1.1-4.2,0.5-5.3-1.4
				C225.3,312.2,225.9,309.8,227.8,308.7z M228.3,309.7c-1.3,0.8-1.7,2.4-1,3.7c0.8,1.3,2.4,1.7,3.7,1c1.3-0.8,1.7-2.4,1-3.7
				C231.3,309.4,229.6,308.9,228.3,309.7z"/>
		</g>
		<g>
			
				<ellipse transform="matrix(3.818846e-02 -0.9993 0.9993 3.818846e-02 -314.189 1018.4824)" class="st0" cx="372" cy="672.5" rx="3.3" ry="3.3"/>
			<path class="st0" d="M370,669.1c1.8-1.1,4.2-0.5,5.3,1.4c1.1,1.8,0.5,4.2-1.4,5.3c-1.8,1.1-4.2,0.5-5.3-1.4
				C367.6,672.6,368.2,670.2,370,669.1z M370.6,670.1c-1.3,0.8-1.7,2.4-1,3.7c0.8,1.3,2.4,1.7,3.7,1c1.3-0.8,1.7-2.4,1-3.7
				C373.6,669.8,371.9,669.3,370.6,670.1z"/>
		</g>
		<g>
			<path class="st0" d="M344.6,678.6c1.6-0.9,2.1-2.9,1.2-4.5c-0.9-1.6-2.9-2.1-4.5-1.2c-1.6,0.9-2.1,2.9-1.2,4.5
				C341,678.9,343,679.5,344.6,678.6z"/>
			<path class="st0" d="M341,672.4c1.8-1.1,4.2-0.5,5.3,1.4c1.1,1.8,0.5,4.2-1.4,5.3c-1.8,1.1-4.2,0.5-5.3-1.4
				C338.5,675.8,339.1,673.4,341,672.4z M341.6,673.4c-1.3,0.8-1.7,2.4-1,3.7c0.8,1.3,2.4,1.7,3.7,1c1.3-0.8,1.7-2.4,1-3.7
				C344.5,673,342.8,672.6,341.6,673.4z"/>
		</g>
		<g>
			
				<ellipse transform="matrix(0.878 -0.4787 0.4787 0.878 -42.1519 82.1649)" class="st0" cx="140.1" cy="123.8" rx="3.3" ry="3.3"/>
			<path class="st0" d="M138.2,120.4c1.8-1.1,4.2-0.5,5.3,1.4c1.1,1.8,0.5,4.2-1.4,5.3c-1.8,1.1-4.2,0.5-5.3-1.4
				C135.7,123.9,136.3,121.5,138.2,120.4z M138.7,121.4c-1.3,0.8-1.7,2.4-1,3.7c0.8,1.3,2.4,1.7,3.7,1c1.3-0.8,1.7-2.4,1-3.7
				S140,120.7,138.7,121.4z"/>
		</g>
		<g>
			<path class="st0" d="M132.8,152.5c1.6-0.9,2.1-2.9,1.2-4.5c-0.9-1.6-2.9-2.1-4.5-1.2c-1.6,0.9-2.1,2.9-1.2,4.5
				C129.3,152.9,131.3,153.4,132.8,152.5z"/>
			<path class="st0" d="M129.2,146.3c1.8-1.1,4.2-0.5,5.3,1.4c1.1,1.8,0.5,4.2-1.4,5.3c-1.8,1.1-4.2,0.5-5.3-1.4
				C126.8,149.8,127.4,147.4,129.2,146.3z M129.8,147.3c-1.3,0.8-1.7,2.4-1,3.7c0.8,1.3,2.4,1.7,3.7,1c1.3-0.8,1.7-2.4,1-3.7
				C132.8,147,131.1,146.5,129.8,147.3z"/>
		</g>
		<g>
			<path class="st0" d="M99.5,259.9c2.4-1.4,3.1-4.4,1.8-6.8c-1.4-2.4-4.4-3.1-6.8-1.8c-2.4,1.4-3.1,4.4-1.8,6.8
				C94.1,260.5,97.1,261.3,99.5,259.9z"/>
			<path class="st0" d="M94.2,250.9c2.6-1.5,6-0.7,7.5,2c1.5,2.6,0.7,6-2,7.5c-2.6,1.5-6,0.7-7.5-2
				C90.7,255.8,91.5,252.4,94.2,250.9z M94.7,251.9c-2.1,1.2-2.8,3.9-1.6,6c1.2,2.1,3.9,2.8,6,1.6c2.1-1.2,2.8-3.9,1.6-6
				C99.5,251.4,96.8,250.7,94.7,251.9z"/>
		</g>
		<g>
			<path class="st0" d="M162.4,296.9c1.6-0.9,2.1-2.9,1.2-4.5c-0.9-1.6-2.9-2.1-4.5-1.2c-1.6,0.9-2.1,2.9-1.2,4.5
				C158.8,297.3,160.8,297.8,162.4,296.9z"/>
			<path class="st0" d="M158.7,290.7c1.8-1.1,4.2-0.5,5.3,1.4c1.1,1.8,0.5,4.2-1.4,5.3c-1.8,1.1-4.2,0.5-5.3-1.4
				C156.3,294.1,156.9,291.8,158.7,290.7z M159.3,291.7c-1.3,0.8-1.7,2.4-1,3.7c0.8,1.3,2.4,1.7,3.7,1c1.3-0.8,1.7-2.4,1-3.7
				C162.3,291.3,160.6,290.9,159.3,291.7z"/>
		</g>
		<g>
			<path class="st0" d="M45.2,143.8c2.4-1.4,3.1-4.4,1.8-6.8c-1.4-2.4-4.4-3.1-6.8-1.8c-2.4,1.4-3.1,4.4-1.8,6.8
				C39.8,144.4,42.9,145.2,45.2,143.8z"/>
			<path class="st0" d="M39.9,134.8c2.6-1.5,6-0.7,7.5,2c1.5,2.6,0.7,6-2,7.5c-2.6,1.5-6,0.7-7.5-2
				C36.4,139.7,37.3,136.3,39.9,134.8z M40.5,135.8c-2.1,1.2-2.8,3.9-1.6,6c1.2,2.1,3.9,2.8,6,1.6c2.1-1.2,2.8-3.9,1.6-6
				C45.3,135.2,42.6,134.5,40.5,135.8z"/>
		</g>
		<g>
			<path class="st0" d="M-0.8,112.3c2.4-1.4,3.1-4.4,1.8-6.8c-1.4-2.4-4.4-3.1-6.8-1.8c-2.4,1.4-3.1,4.4-1.8,6.8
				C-6.2,112.8-3.1,113.6-0.8,112.3z"/>
			<path class="st0" d="M-6.1,103.2c2.6-1.5,6-0.7,7.5,2c1.5,2.6,0.7,6-2,7.5c-2.6,1.5-6,0.7-7.5-2C-9.6,108.2-8.7,104.8-6.1,103.2z
				 M-5.5,104.2c-2.1,1.2-2.8,3.9-1.6,6c1.2,2.1,3.9,2.8,6,1.6c2.1-1.2,2.8-3.9,1.6-6C-0.7,103.7-3.4,103-5.5,104.2z"/>
		</g>
		<g>
			<path class="st0" d="M15.8,40.7c2.4-1.4,3.1-4.4,1.8-6.8c-1.4-2.4-4.4-3.1-6.8-1.8c-2.4,1.4-3.1,4.4-1.8,6.8
				C10.4,41.2,13.4,42,15.8,40.7z"/>
			<path class="st0" d="M10.5,31.6c2.6-1.5,6-0.7,7.5,2c1.5,2.6,0.7,6-2,7.5c-2.6,1.5-6,0.7-7.5-2C7,36.6,7.9,33.2,10.5,31.6z
				 M11.1,32.6c-2.1,1.2-2.8,3.9-1.6,6c1.2,2.1,3.9,2.8,6,1.6c2.1-1.2,2.8-3.9,1.6-6C15.8,32.1,13.1,31.4,11.1,32.6z"/>
		</g>
	</g>
</g>
</svg>
